<svg xmlns="http://www.w3.org/2000/svg" focusable="false" aria-hidden="true" height="32.95833206176758" width="32.95833206176758" style=""><rect id="backgroundrect" width="100%" height="100%" x="0" y="0" fill="none" stroke="none" style="" class=""/><g class="currentLayer" style=""><title>Layer 1</title><path fill="#000000" d="M5.126501966953278,26.127497913837434 a1.5,1.5 0 0 0 2.122,2.121 L16.510501966953278,18.987497913837434 a0.25,0.25 0 0 1 0.3540000000000003,0 l9.262,9.263 a1.5,1.5 0 1 0 2.122,-2.121 L18.987501966953275,16.864497913837432 a0.25,0.25 0 0 1 0,-0.3540000000000003 l9.263,-9.262 A1.5,1.5 0 0 0 26.126501966953278,5.127497913837434 L16.864501966953277,14.387497913837432 a0.25,0.25 0 0 1 -0.3540000000000003,0 L7.2485019669532775,5.127497913837434 A1.5,1.5 0 0 0 5.126501966953278,7.248497913837433 L14.38750196695328,16.510497913837433 a0.25,0.25 0 0 1 0,0.3540000000000003 z" id="svg_1" class="" transform="rotate(45 16.688354492187507,16.68864250183105) "/></g></svg>